<svg width="986" height="1058" viewBox="0 0 986 1058" fill="none" xmlns="http://www.w3.org/2000/svg">
<g clip-path="url(#clip0_1516_14511)">
<mask id="path-1-inside-1_1516_14511" fill="white">
<path d="M361.518 0C380.859 4.7784 392.298 40.5666 397.883 57.1994C397.444 53.1447 396.529 47.3944 397.724 43.6154L398.597 43.1737C400.83 45.7919 403.05 50.8645 405.202 54.1734C410.893 62.9226 416.935 68.5394 424.512 75.4187C421.641 66.2654 420.742 61.4706 420.394 51.9378C429.344 62.1664 431.266 67.1624 442.566 76.8496C437.027 61.4361 434.875 52.0379 436.335 35.7592C438.892 39.6541 441.418 45.105 444.311 49.5718C451.348 60.4399 458.491 66.965 468.039 75.327C463.351 63.7646 461.383 56.9698 461.112 44.5181C468.681 53.8373 474.276 60.185 482.75 68.6977C481.458 63.808 480.276 58.8912 479.199 53.95C478.268 49.6355 475.555 34.1824 477.851 30.628C478.862 31.2506 478.789 31.0028 479.261 31.811C484.66 41.069 491.261 48.9592 498.541 56.7771C497.825 51.692 497.788 48.7666 497.764 43.5818C502.27 48.8317 506.091 54.216 510.928 59.4273C517.976 67.0125 524.674 72.37 532.769 78.5506C548.652 63.7035 545.989 50.7467 541.666 32.112C555.59 43.6012 563.886 58.6823 571.693 74.5262C570.603 63.8932 569.434 57.7366 566.795 47.5338C580.621 59.0152 599.131 81.2722 610.893 95.2303C609.552 86.6727 607.531 70.241 607.77 61.8579C612.491 66.6214 616.881 73.0745 620.825 78.579C629.856 91.2017 636.905 101.662 648.404 112.362C645.997 107.562 644.705 104.376 642.813 99.3257C802.122 131.891 923.437 264.758 952.486 423.37C958.106 454.027 959.106 485.386 958.91 516.478C976.678 530.142 985.532 543.907 985.305 567.425C984.705 629.972 976.831 699.199 954.304 757.834C943.742 785.326 909.955 807.479 881.036 808.759C870.412 816.205 860.768 820.362 847.789 815.103C842.915 816.566 839.105 817.686 833.975 817.809C804.897 818.501 781.745 816.082 768.067 788.02C766.621 796.978 764.79 807.222 762.702 816.003L761.857 816.462C760.73 815.219 760.314 812.421 759.891 810.633C758.599 824.581 755.611 837.012 749.053 849.429L748.821 836.723C745.674 851.143 740.206 867.43 731.995 879.652C732.184 875.016 732.46 871.379 732.974 866.763C726.221 881.115 723.655 892.614 712.37 905.417L714.734 892.578C708.666 904.854 703.278 916.745 693.635 926.677C694.363 922.568 695.311 918.368 696.187 914.271C688.16 928.287 683.973 935.598 672.143 946.858L675.878 934.141C668.285 945.462 661.145 956.796 650.013 964.921L653.584 953.716C645.514 965.056 638.079 974.743 626.832 982.989C628.039 979.029 629.703 974.81 631.166 970.897C622.429 982.041 615.381 991.275 603.227 998.843C604.96 994.851 606.387 991.183 607.918 987.105C598.532 997.949 591.281 1006.23 578.974 1013.85C580.272 1010.25 582.482 1005.47 584.031 1001.86L579.275 1006.8C570.898 1015.74 564.756 1022 553.642 1027.26C555.835 1023.07 557.965 1018.84 560.023 1014.58C547.697 1025.64 540.558 1033.76 524.687 1040.19C527.577 1035.74 530.148 1031.29 532.818 1026.71C523.168 1035.59 510.524 1045.03 497.794 1048.45C500.8 1044.18 503.14 1040.57 505.871 1036.11C495.516 1044.93 483.301 1051.28 470.141 1054.69L478.39 1042.44C467.209 1050.17 459.478 1054.46 446.335 1057.55C448.624 1053.72 450.6 1050 452.696 1046.06C447.915 1049.08 442.94 1052.05 438.107 1055C431.4 1051.4 427.777 1048.73 421.946 1043.82L427.691 1054.32C416.258 1051.85 405.918 1043.39 397.393 1035.83C399.688 1039.93 402.056 1043.99 404.494 1048C390.184 1043.25 381.865 1036.29 371.171 1026.24C373.356 1030.52 376.018 1035.08 378.372 1039.3C362.141 1032.34 353.369 1023.38 341.77 1010.76L346.715 1022.61C333.335 1014.65 325.69 1005.11 316.668 992.813L321.27 1005.1C307.465 996.4 305.49 988.317 296.35 978.618C296.727 980.351 296.83 980.988 296.974 982.751L296.123 983.241C291.541 981.086 282.637 966.643 279.523 961.91C280.706 965.423 281.837 968.956 282.916 972.508C272.315 964.603 265.956 952.075 258.719 941.171C260.124 945.278 261.408 949.43 262.572 953.612C253.114 945.242 246.831 932.953 240.8 921.999L242.97 931.979C232.621 920.848 232.134 912.716 225.112 902.063C225.652 904.634 226.8 908.008 225.612 910.236L224.398 909.942C217.793 902.693 212.826 886.522 208.29 877.533L207.993 876.957C208.39 879.884 208.956 882.107 208.267 884.954L207.442 885.427C202.58 881.073 199.364 865.881 196.775 859.115C196.376 860.664 196.498 860.878 195.423 861.999L194.515 861.534C191.709 857.088 189.584 844.829 188.387 839.221C187.419 840.091 187.722 840.305 187.284 842.068L186.753 842.111C182.684 836.564 177.866 814.08 176.155 806.934C156.254 814.796 137.752 814.662 118.746 804.461C115.199 804.687 111.576 804.791 108.034 804.436C101.614 803.787 94.2963 801.528 89.194 797.474C87.1877 795.882 85.3087 793.428 83.0826 792.208C79.0984 790.036 73.9447 788.866 69.6678 787.225C56.8978 782.321 44.7592 775.229 36.0616 764.477C6.10452 727.445 -3.68953 621.694 1.19483 574.908C3.77145 550.226 13.406 531.863 32.7321 516.29C33.2961 505.799 34.021 495.317 34.9083 484.847C41.3852 401.848 72.0318 322.563 123.065 256.786C129.874 248.011 147.206 226.843 155.332 220.03C157.601 220.087 155.662 222.037 157.555 223.295C159.122 220.366 160.163 213.918 161.496 210.318C166.091 197.907 171.686 189.498 180.273 179.755C177.858 193.316 176.972 199.086 176.944 212.764C182.945 201.481 190.625 191.331 196.513 180.231C198.103 177.232 200.868 165.129 202.334 160.761C210.428 136.644 222.736 114.318 243.304 98.6489C236.912 113.05 233.577 126.135 230.702 141.501C241.868 123.659 256.547 98.3898 271.76 84.5096C269.942 94.0695 266.824 104.965 264.317 114.5C278.332 98.275 290.712 72.6399 301.98 54.198C302.305 70.6122 301.377 75.7133 297.463 91.3959C313.999 68.5547 319.486 55.3974 328.771 29.4695C332.712 42.2538 330.999 57.3682 328.422 70.2578C339.876 54.4077 344.02 44.3127 350.574 26.2705C353.032 34.4075 353.416 40.392 352.976 48.8473C362.837 29.0729 363.008 21.0174 361.518 0ZM816.769 273.37C819.935 280.629 823.486 287.536 825.641 295.176C822.427 292.98 819.659 291.11 816.634 288.654C829.928 309.64 839.559 329.093 842.327 354.372C838.849 350.493 836.596 347.457 833.51 343.227C839.657 363.009 843.453 383.447 841.476 404.237C838.928 399.855 837.226 396.387 835.053 391.789C836.492 401.884 836.827 439.563 832.927 448.273L832.817 447.87C831.5 454.404 831.194 458.197 830.698 464.766C836.815 464.084 841.218 463.52 847.42 463.739C859.783 464.762 870.499 466.705 881.006 473.616C883.474 473.027 885.384 472.578 887.887 472.193C888.861 409.336 873.475 354.071 837.973 301.948C834.453 296.781 821.258 276.703 816.769 273.37ZM136.918 342.502C113.139 385.61 101.697 422.188 98.046 471.094L106.662 472.417C114.712 466.384 118.005 464.291 127.702 461.826C137.159 459.799 142.181 460.079 151.869 461.054C150.076 447.116 149.296 439.858 149.078 425.873L148.602 425.775L146.621 428.53L145.912 428.437C143.946 422.954 145.726 404.419 145.954 397.707C144.369 400.734 142.76 404.112 140.768 406.846C138.808 388.358 139.827 374.6 144.228 356.49C142.559 359.689 140.32 364.867 137.478 366.75L136.661 366.157C135.876 360.209 137.62 346.036 136.918 342.502Z"/>
</mask>
<path d="M361.518 0C380.859 4.7784 392.298 40.5666 397.883 57.1994C397.444 53.1447 396.529 47.3944 397.724 43.6154L398.597 43.1737C400.83 45.7919 403.05 50.8645 405.202 54.1734C410.893 62.9226 416.935 68.5394 424.512 75.4187C421.641 66.2654 420.742 61.4706 420.394 51.9378C429.344 62.1664 431.266 67.1624 442.566 76.8496C437.027 61.4361 434.875 52.0379 436.335 35.7592C438.892 39.6541 441.418 45.105 444.311 49.5718C451.348 60.4399 458.491 66.965 468.039 75.327C463.351 63.7646 461.383 56.9698 461.112 44.5181C468.681 53.8373 474.276 60.185 482.75 68.6977C481.458 63.808 480.276 58.8912 479.199 53.95C478.268 49.6355 475.555 34.1824 477.851 30.628C478.862 31.2506 478.789 31.0028 479.261 31.811C484.66 41.069 491.261 48.9592 498.541 56.7771C497.825 51.692 497.788 48.7666 497.764 43.5818C502.27 48.8317 506.091 54.216 510.928 59.4273C517.976 67.0125 524.674 72.37 532.769 78.5506C548.652 63.7035 545.989 50.7467 541.666 32.112C555.59 43.6012 563.886 58.6823 571.693 74.5262C570.603 63.8932 569.434 57.7366 566.795 47.5338C580.621 59.0152 599.131 81.2722 610.893 95.2303C609.552 86.6727 607.531 70.241 607.77 61.8579C612.491 66.6214 616.881 73.0745 620.825 78.579C629.856 91.2017 636.905 101.662 648.404 112.362C645.997 107.562 644.705 104.376 642.813 99.3257C802.122 131.891 923.437 264.758 952.486 423.37C958.106 454.027 959.106 485.386 958.91 516.478C976.678 530.142 985.532 543.907 985.305 567.425C984.705 629.972 976.831 699.199 954.304 757.834C943.742 785.326 909.955 807.479 881.036 808.759C870.412 816.205 860.768 820.362 847.789 815.103C842.915 816.566 839.105 817.686 833.975 817.809C804.897 818.501 781.745 816.082 768.067 788.02C766.621 796.978 764.79 807.222 762.702 816.003L761.857 816.462C760.73 815.219 760.314 812.421 759.891 810.633C758.599 824.581 755.611 837.012 749.053 849.429L748.821 836.723C745.674 851.143 740.206 867.43 731.995 879.652C732.184 875.016 732.46 871.379 732.974 866.763C726.221 881.115 723.655 892.614 712.37 905.417L714.734 892.578C708.666 904.854 703.278 916.745 693.635 926.677C694.363 922.568 695.311 918.368 696.187 914.271C688.16 928.287 683.973 935.598 672.143 946.858L675.878 934.141C668.285 945.462 661.145 956.796 650.013 964.921L653.584 953.716C645.514 965.056 638.079 974.743 626.832 982.989C628.039 979.029 629.703 974.81 631.166 970.897C622.429 982.041 615.381 991.275 603.227 998.843C604.96 994.851 606.387 991.183 607.918 987.105C598.532 997.949 591.281 1006.23 578.974 1013.85C580.272 1010.25 582.482 1005.47 584.031 1001.86L579.275 1006.8C570.898 1015.74 564.756 1022 553.642 1027.26C555.835 1023.07 557.965 1018.84 560.023 1014.58C547.697 1025.64 540.558 1033.76 524.687 1040.19C527.577 1035.74 530.148 1031.29 532.818 1026.71C523.168 1035.59 510.524 1045.03 497.794 1048.45C500.8 1044.18 503.14 1040.57 505.871 1036.11C495.516 1044.93 483.301 1051.28 470.141 1054.69L478.39 1042.44C467.209 1050.17 459.478 1054.46 446.335 1057.55C448.624 1053.72 450.6 1050 452.696 1046.06C447.915 1049.08 442.94 1052.05 438.107 1055C431.4 1051.4 427.777 1048.73 421.946 1043.82L427.691 1054.32C416.258 1051.85 405.918 1043.39 397.393 1035.83C399.688 1039.93 402.056 1043.99 404.494 1048C390.184 1043.25 381.865 1036.29 371.171 1026.24C373.356 1030.52 376.018 1035.08 378.372 1039.3C362.141 1032.34 353.369 1023.38 341.77 1010.76L346.715 1022.61C333.335 1014.65 325.69 1005.11 316.668 992.813L321.27 1005.1C307.465 996.4 305.49 988.317 296.35 978.618C296.727 980.351 296.83 980.988 296.974 982.751L296.123 983.241C291.541 981.086 282.637 966.643 279.523 961.91C280.706 965.423 281.837 968.956 282.916 972.508C272.315 964.603 265.956 952.075 258.719 941.171C260.124 945.278 261.408 949.43 262.572 953.612C253.114 945.242 246.831 932.953 240.8 921.999L242.97 931.979C232.621 920.848 232.134 912.716 225.112 902.063C225.652 904.634 226.8 908.008 225.612 910.236L224.398 909.942C217.793 902.693 212.826 886.522 208.29 877.533L207.993 876.957C208.39 879.884 208.956 882.107 208.267 884.954L207.442 885.427C202.58 881.073 199.364 865.881 196.775 859.115C196.376 860.664 196.498 860.878 195.423 861.999L194.515 861.534C191.709 857.088 189.584 844.829 188.387 839.221C187.419 840.091 187.722 840.305 187.284 842.068L186.753 842.111C182.684 836.564 177.866 814.08 176.155 806.934C156.254 814.796 137.752 814.662 118.746 804.461C115.199 804.687 111.576 804.791 108.034 804.436C101.614 803.787 94.2963 801.528 89.194 797.474C87.1877 795.882 85.3087 793.428 83.0826 792.208C79.0984 790.036 73.9447 788.866 69.6678 787.225C56.8978 782.321 44.7592 775.229 36.0616 764.477C6.10452 727.445 -3.68953 621.694 1.19483 574.908C3.77145 550.226 13.406 531.863 32.7321 516.29C33.2961 505.799 34.021 495.317 34.9083 484.847C41.3852 401.848 72.0318 322.563 123.065 256.786C129.874 248.011 147.206 226.843 155.332 220.03C157.601 220.087 155.662 222.037 157.555 223.295C159.122 220.366 160.163 213.918 161.496 210.318C166.091 197.907 171.686 189.498 180.273 179.755C177.858 193.316 176.972 199.086 176.944 212.764C182.945 201.481 190.625 191.331 196.513 180.231C198.103 177.232 200.868 165.129 202.334 160.761C210.428 136.644 222.736 114.318 243.304 98.6489C236.912 113.05 233.577 126.135 230.702 141.501C241.868 123.659 256.547 98.3898 271.76 84.5096C269.942 94.0695 266.824 104.965 264.317 114.5C278.332 98.275 290.712 72.6399 301.98 54.198C302.305 70.6122 301.377 75.7133 297.463 91.3959C313.999 68.5547 319.486 55.3974 328.771 29.4695C332.712 42.2538 330.999 57.3682 328.422 70.2578C339.876 54.4077 344.02 44.3127 350.574 26.2705C353.032 34.4075 353.416 40.392 352.976 48.8473C362.837 29.0729 363.008 21.0174 361.518 0ZM816.769 273.37C819.935 280.629 823.486 287.536 825.641 295.176C822.427 292.98 819.659 291.11 816.634 288.654C829.928 309.64 839.559 329.093 842.327 354.372C838.849 350.493 836.596 347.457 833.51 343.227C839.657 363.009 843.453 383.447 841.476 404.237C838.928 399.855 837.226 396.387 835.053 391.789C836.492 401.884 836.827 439.563 832.927 448.273L832.817 447.87C831.5 454.404 831.194 458.197 830.698 464.766C836.815 464.084 841.218 463.52 847.42 463.739C859.783 464.762 870.499 466.705 881.006 473.616C883.474 473.027 885.384 472.578 887.887 472.193C888.861 409.336 873.475 354.071 837.973 301.948C834.453 296.781 821.258 276.703 816.769 273.37ZM136.918 342.502C113.139 385.61 101.697 422.188 98.046 471.094L106.662 472.417C114.712 466.384 118.005 464.291 127.702 461.826C137.159 459.799 142.181 460.079 151.869 461.054C150.076 447.116 149.296 439.858 149.078 425.873L148.602 425.775L146.621 428.53L145.912 428.437C143.946 422.954 145.726 404.419 145.954 397.707C144.369 400.734 142.76 404.112 140.768 406.846C138.808 388.358 139.827 374.6 144.228 356.49C142.559 359.689 140.32 364.867 137.478 366.75L136.661 366.157C135.876 360.209 137.62 346.036 136.918 342.502Z" fill="#181617" stroke="white" stroke-width="21.16" mask="url(#path-1-inside-1_1516_14511)"/>
<path d="M411.52 554.069C430.809 540.084 460.317 539.245 479.642 553.554C476.954 577 482.257 599.312 492.023 620.957C518.567 679.775 592.374 703.985 649.93 677.13C681.96 662.183 702.95 627.374 709.655 593.599C711.326 585.162 711.436 576.24 713.065 567.833C712.888 567.08 714.835 565.874 715.643 565.715C725.054 563.86 737.496 564.594 746.436 567.65C754.696 570.479 761.694 572.683 769.22 575.75C764.787 618.502 763.599 660.291 762.741 703.214C761.535 698.493 760.868 695.958 759.019 691.501C758.106 706.655 760.023 720.407 758.804 736.652C757.359 728.227 756.643 724.736 753.416 716.709C752.247 723.389 753.006 731.349 753.183 738.238C753.385 744.942 753.257 751.653 752.792 758.346C750.275 748.512 750.716 744.961 744.336 736.719C744.219 742.499 745.432 751.249 745.854 757.391C746.558 767.83 746.032 773.506 744.434 783.585C743.815 771.51 742.958 764.279 737.864 752.909C738.341 761.848 738.451 768.32 736.97 777.18C735.378 772.264 731.214 764.077 728.893 759.16C727.663 778.785 729.003 777.793 723.364 797.76C721.821 787.161 721.025 782.422 716.096 773.127C716.512 791.043 720.658 802.762 715.52 819.999C714.614 816.062 717.719 801.911 714.186 797.092C712.116 799.603 711.387 813.068 710.989 816.772C709.257 807.349 708.167 798.519 704.321 789.69L703.593 789.482C702.527 791.22 703.042 799.768 702.913 802.726C702.423 814.157 700.605 822.485 697.36 833.335C696.606 827.591 695.4 801.875 691.481 799.658C690.392 801.256 690.71 807.869 690.471 810.514C689.675 819.27 687.832 827.977 685.762 836.5C684.219 826.746 681.372 817.25 677.294 808.261C676.707 814.341 674.025 839.274 677.649 842.819C679.437 841.123 680.258 828.02 680.546 824.793C682.34 842.189 682.021 848.728 678.188 865.903C677.949 853.461 678.66 846.107 672.561 835.006C671.888 842.966 671.086 847.797 669.592 855.586C666.616 845.863 666.493 839.115 661.723 829.19C661.374 834.119 661.166 838.944 660.774 843.891C660.248 850.51 658.693 858.605 659.06 865.089C657.272 861.397 656.133 857.968 654.48 854.441C653.794 863.172 653.439 872.982 650.91 881.278C648.994 868.738 646.342 859.486 640.121 848.355C640.072 856.559 640.127 863.368 638.48 871.506C637.366 877.017 635.841 880.862 635.131 886.434C633.423 879.747 629.332 869.093 623.62 864.973H622.511C621.973 867.103 624.275 873.294 624.642 876.778C625.365 883.672 625.132 887.358 624.416 894.186C622.364 889.299 621.317 887.009 617.356 883.164L616.713 883.268C615.115 887.658 624.134 890.787 623.387 898.968L622.916 899.635C620.968 896.39 610.014 876.686 605.355 879.447C606.585 883.36 608.245 887.144 609.335 890.849C612.084 900.205 612.157 909.524 612.212 919.18C608.367 911.33 610.884 902.146 604.865 896.598L604.081 896.8C603.64 900.339 605.753 907.32 606.689 911.018C600.236 902.109 596.831 897.235 586.581 892.183C592.331 903.303 594.254 907.277 596.323 919.67C594.339 915.469 593.096 911.912 589.178 909.297L588.608 909.738C589.104 913.302 593.286 922.15 594.835 928.952C587.628 917.741 583.03 913.075 571.249 906.138C576.582 915.261 579.852 921.096 582.485 931.518C580.232 928.567 575.211 921.378 571.758 920.209C570.729 921.905 574.36 932.761 574.648 937.071C571.127 929.681 558.238 909.138 549.274 908.379L548.937 909.224C555.391 920.864 558.085 924.066 560.436 938.247C559.891 937.28 557.344 932.742 556.78 932.406C553.529 930.489 545.251 921.323 543.249 920.46C542.024 923.08 545.826 930.403 546.328 933.771C546.751 936.6 546.996 938.425 547.063 941.376C539.685 927.195 530.127 913.969 515.811 906.187C521.328 914.808 523.545 918.543 527.188 927.936C524.971 925.591 520.318 920.025 517.299 919.382L516.601 919.982C524.579 932.761 527.708 925.983 528.829 946.966C523.71 933.104 510.931 913.106 498.832 904.564C504.079 917.698 506.339 922.872 508.274 936.9C503.241 925.866 494.264 906.842 484.639 899.868C488.264 908.783 490.566 913.896 492.568 923.307C489.537 918.561 486.531 913.883 483.726 908.997C479.667 901.925 477.193 895.012 471.713 888.859C472.955 896.959 474.493 904.674 474.759 912.885C472.145 902.642 469.729 892.343 467.516 882.001C471.543 886.115 475.348 889.997 479.177 894.32C484.253 884.566 486.151 879.558 485.674 868.304C488.098 871.788 489.36 873.98 491.393 877.715L492.268 877.653C498.379 870.379 495.77 857.135 492.378 849.114C494.919 851.398 497.124 853.767 500.234 855.041L501.649 854.87C503.039 849.971 496.646 842.899 493.113 839.917C477.242 839.286 460.609 841.932 444.606 840.983C444.047 840.952 443.075 843.272 442.042 842.072C438.661 840.976 436.435 840.946 432.955 841.08C431.069 842.311 430.328 843.175 428.283 843.401L428.221 841.57C427.019 840.603 395.245 838.007 391.196 837.829C382.975 837.468 379.667 847.491 378.247 854.043C381.523 851.214 385.066 848.018 388.498 845.446C384.629 852.402 378.615 867.722 385.044 874.543L385.672 874.794C387.618 871.518 389.353 868.114 391.396 864.96C390.701 870.373 389.512 881.523 393.715 885.583C394.658 884.352 396.041 879.172 396.878 877.072C396.638 881.088 395.69 888.307 397.696 891.455C400.553 891.926 407.647 883.348 409.962 881.009C406.643 891.167 402.025 905.74 396.09 914.784C397.034 910.332 401.858 896.488 401.071 894.112C398.037 895.404 389.789 909.236 386.644 912.549C379.665 919.908 374.807 928.083 370.116 937.004C374.238 922.462 376.598 916.486 383.577 903.229C376.456 908.067 373.903 911.244 368.006 916.014C357.627 924.415 353.841 926.35 347.884 939.166C351.829 922.664 353.175 921.47 361.806 906.928C354.946 910.791 350.078 916.731 343.554 919.051C338.162 920.974 333.13 928.334 329.767 932.7C332.956 921.39 334.631 918.874 340.489 908.703C329.995 914.141 320.463 924.17 314.193 934.114L314.334 933.116C315.061 928.181 318.855 919.131 317.691 916.663C314.238 917.637 311.808 923.931 310.448 927.005L309.786 924.299C310.894 920.178 317.415 906.615 316.362 904.387C312.058 905.305 303.187 915.775 300.4 919.247C301.642 911.422 302.17 909.297 305.542 902.158C297.491 907.099 297.687 913.632 295.877 922.303C294.529 916.063 298.805 901.472 301.816 895.869C302.694 894.228 304.84 889.11 304.927 887.53L303.854 887.242C297.149 890.579 292.423 897.186 287.967 903.009C288.334 900.352 291.285 890.206 290.389 888.932C288.127 891.167 287.893 892.3 286.67 895.263L284.604 895.196C285.204 885.252 287.58 879.196 291.547 870.042C287.194 872.847 286.594 873.643 283.204 876.888C280.42 879.552 276.263 887.732 274.353 888.461C273.974 884.07 277.769 874.794 276.662 871.904C273.909 873.808 272.998 878.033 272.026 881.235C271.662 871.855 272.767 866.448 274.179 857.178C265.395 867.354 264.247 870.771 260.946 883.299C259.322 872.663 261.148 857.68 260.979 845.869C255.452 855.053 254.998 858.225 253.659 868.842C249.29 849.947 249.186 846.916 248.373 827.536C244.827 834.712 242.988 841.797 241.131 849.555C240.618 846.53 236.387 817.825 236.197 817.397C234.836 818.131 235.515 817.794 234.16 818.419C233.37 814.066 234.833 811.053 234.139 806.81L233.163 806.491C226.929 810.52 225.81 817.678 223.547 824.744C221.49 812.051 222.501 800.828 223.746 788.141C217.256 797.772 216.473 804.293 215.642 815.572C211.553 803.95 211.271 787.173 211.896 774.915C205.517 787.161 202.817 800.558 202.473 814.237C198.294 796.597 199.659 785.006 201.676 767.157C196.154 776.011 194.485 781.191 192.759 791.343C191.338 776.96 191.8 769.869 193.188 755.756C188.076 763.538 187.893 767.432 187.146 776.507C182.65 761.211 186.311 751.5 183.984 736.401C181.137 742.475 180.378 746.755 178.932 753.3C176.557 737.209 173.976 721.044 172.842 704.818C169.618 658.724 172.174 610.731 177.652 564.864C195.168 564.57 192.3 564.864 193.632 581.255C198.762 644.384 242.237 689.676 307.426 685.708C335.232 684.196 361.235 671.466 379.48 650.427C402.512 623.822 414.036 589.166 411.52 554.069Z" fill="white"/>
<path d="M395.569 648.194C399.958 636.646 411.77 600.349 418.012 591.801L418.868 591.691C421.936 598.867 410.417 646.088 404.617 654.452C400.791 659.975 387.038 662.914 383.509 671.829C379.496 681.975 379.218 690.376 390.46 695.127C394.641 694.068 402.52 691.974 406.429 692.323C421.802 693.707 422.54 701.998 440.529 701.336C457.13 700.724 460.077 692.733 476.133 692.194C485.183 691.894 494.808 697.479 501.458 695.942C512.822 693.315 509.987 679.397 512.393 675.393C522.294 676.311 518.492 697.577 510.661 703.234C499.425 711.354 488.189 706.78 475.554 705.922C478.086 708.782 478.484 711.396 481.337 712.939L482.55 712.015C486.591 712.701 494.686 728.467 498.139 733.25C496.443 728.455 494.588 723.875 492.696 719.16C502.199 725.461 509.51 734.235 517.806 742.318C515.394 737.021 512.706 732.496 509.816 727.469C519.319 731.945 523.88 735.546 530.505 743.493L530.952 743.108C530.499 741.252 530.322 741.675 530.665 740.022C533.249 740.787 535.52 742.869 537.724 744.559C534.865 740.756 532.048 736.929 529.262 733.072C543.437 738.975 546.48 744.938 557.422 754.754C555.206 749.463 550.791 743.579 547.613 738.43C559.027 743.555 565.425 749.751 574.065 758.336C570.122 751.061 567.219 747.271 561.868 740.928C574.126 745.385 577.488 748.582 586.501 757.65L587.027 757.662L588.264 756.762C597.192 758.17 605.249 774.586 607.203 782.669C604.649 780.807 601.667 777.862 599.292 775.664C602.959 782.54 604.98 788.4 605.39 796.323C605.537 799.164 605.605 805.955 603.78 807.963L602.739 807.828C600.798 806.071 600.051 803.371 599.028 800.854C599.09 812.868 597.957 818.77 588.729 827.006C587.266 820.993 586.923 818.562 584.59 812.696C584.327 815.451 584.333 816.376 583.47 818.948L582.631 819.352C578.137 816.909 576.943 804.901 573.961 803.573C573.685 805.397 573.942 805.734 572.956 806.989C568.572 805.091 567.617 797.444 563.509 794.921C563.876 796.55 564.194 797.346 563.852 798.993L562.664 799.072C557.716 796.844 551.899 789.992 547.962 785.847C548.93 788.492 550.173 791.406 551.232 794.045C541.551 791.033 535.502 786.557 528.54 779.411C529.918 782.509 531.271 785.614 532.618 788.73C522.301 785.302 517.408 781.597 509.203 774.519C510.342 777.391 511.242 780.262 512.204 783.201C501.96 779.785 496.516 775.67 489.04 768.084L492.291 777.538C482.286 774.635 477.388 770.778 470.323 763.455C471.48 766.73 472.229 770.067 473.052 773.441C464.543 769.896 461.06 767.275 454.504 760.889C454.912 763.461 455.18 764.318 454.869 766.841C453.574 768.555 454.406 768.022 452.259 768.451C447.447 766.908 443.403 760.815 441.056 756.56C436.089 764.146 433.247 766.375 425.047 769.81L426.221 761.281C423.413 764.091 413.97 774.17 410.129 770.949C409.54 768.549 410.844 766.038 411.723 763.608C405.897 770.472 400.01 773.962 391.81 777.311C392.925 774.225 394.599 770.753 395.956 767.722C388.921 774.837 382.496 779.185 372.974 782.16C374.466 778.836 375.933 775.499 377.377 772.149C373.864 776.166 361.03 788.149 355.983 786.177C355.451 783.722 356.237 782.859 357.148 780.201C350.91 785.81 346.955 789.588 339.057 792.6L341.612 785.014C333.634 793.488 332.026 795.056 322.054 801.075L323.729 794.027C315.899 801.644 316.735 808.043 310.857 814.833L310.112 814.404L309.652 810.216C308.016 810.859 305.216 820.736 302.228 823.607L301.047 823.466C298.302 820.031 296.949 813.884 295.835 809.616C295.582 812.072 295.631 814.772 294.227 816.688L292.991 816.866C288.875 812.623 288.996 801.62 289.626 796.109C287.902 799.17 286.814 801.417 285.359 804.583L284.472 804.448C279.219 794.272 284.854 780.838 289.891 771.702C287.558 773.876 284.862 777.072 282.099 777.985L281.336 777.403C281.377 771.274 288.887 760.252 294.426 757.429L295.172 757.827C294.442 760.552 292.376 761.489 291.213 764.379L291.494 764.9C304.078 752.249 297.335 747.816 315.869 742.514C312.031 746.916 310.482 748.729 307.345 753.676C311.801 750.425 326.443 739.073 331.024 739.434L331.56 740.23C328.367 744.332 325.267 748.153 323.057 752.868L322.672 753.707C331.809 744.859 341.36 737.677 353.101 732.747C348.671 739.275 345.587 743.12 341.424 750.204C348.012 743.524 364.35 730.629 373.012 727.2C369.234 732.619 366.814 736.66 363.873 742.532C374.185 733.678 378.489 726.312 391.633 718.499C389.596 722.981 387.152 727.745 385.008 732.245C395.955 718.873 393.49 718.046 407.201 706.124C404.475 706.235 400.95 706.461 398.235 706.761C368.131 710.141 362.181 677.505 379.419 658.873C384.483 653.405 388.556 651.164 395.569 648.194Z" fill="#181617"/>
<path d="M586.499 757.648L587.025 757.66C589.34 762.13 591.195 761.873 594.391 769.582C590.834 766.312 587.166 762.54 586.499 757.648Z" fill="white"/>
<path d="M510.422 742.785C514.488 744.249 515.584 748.174 516.055 752.019C512.877 750.531 511.634 746.006 510.422 742.785Z" fill="white"/>
<path d="M315.702 751.602C315.823 754.565 310.563 760.125 308.392 762.825C307.989 758.815 313.083 754.363 315.702 751.602Z" fill="white"/>
<path d="M531.686 745.906C535.825 747.455 537.785 750.945 538.807 755.011C536.034 752.966 533.548 748.839 531.686 745.906Z" fill="white"/>
<path d="M562.757 756.434C566.436 757.75 567.851 762.563 568.794 765.918C566.29 763.971 564.214 759.33 562.757 756.434Z" fill="white"/>
<path d="M349.466 792.646C356.716 792.493 368.52 795.744 376.7 796.265C427.012 799.443 478.081 800.563 528.376 796.877C533.678 796.485 545.226 792.205 548.667 795.891C550.437 800.257 548.19 802.247 544.889 804.5C537.713 807.415 530.041 808.535 522.375 809.319C497.705 811.836 364.637 815.161 348.404 800.692C347.272 799.688 346.547 798.396 346.663 796.84C346.797 795.04 348.269 793.828 349.466 792.646Z" fill="#181617"/>
<path d="M549.805 921.176C553.246 923.435 553.614 924.299 554.887 928.291C552.132 926.73 551.159 924.011 549.805 921.176Z" fill="#181617"/>
<path d="M424.567 286.984C438.411 291.429 451.457 297.067 465.578 301.351C463.024 296.375 461.168 293.049 458.129 288.394C475.606 296.132 487.313 301.329 505.755 306.554C502.559 301.298 497.912 294.982 494.336 289.835C514.67 299.394 537.552 308.299 560.03 310.102C556.644 306.884 551.684 303.049 547.992 300.02C577.597 309.443 609.008 310.235 639.446 304.862C646.132 303.682 652.892 302.61 659.633 301.776C654.423 304.093 650.884 305.808 646.53 309.526C672.682 312.529 682.007 314.221 699.525 335.557C703.076 339.881 708.942 347.181 712.849 351.157L713.504 351.822C713.645 342.04 712.996 337.561 710.24 328.154C718.231 335.26 726.754 342.358 733.643 350.48C728.291 346.582 722.456 342.223 716.608 339.181C721.531 346.949 730.612 356.172 734.886 363.608L735.455 364.617C737.604 368.369 738.027 371.133 738.994 375.324C734.028 371.378 731.353 369.689 725.524 367.286C729.136 374.339 735.1 382.193 738.388 388.708C743.917 399.657 751.344 415.268 755.233 426.636C749.979 418.743 747.126 414.517 739.417 409.14C742.601 418.828 763.609 463.713 762.641 469.681C761.778 475.046 768.409 500.387 770.161 506.901L768.342 508.423C766.683 512.44 769.952 525.549 769.744 529.17C769.322 536.582 769.028 540.728 769.187 548.149C758.661 544.01 742.962 538.358 732.339 534.451C729.136 533.27 711.379 533.196 706.242 532.672C697.431 512.386 685.418 498.197 665.469 487.89C631.394 470.29 580.444 469.241 544.159 480.668C517.022 489.214 498.94 504.758 486.161 529.799C462.124 516.096 428.806 515.667 405.356 530.838C395.065 511.502 384.645 499.721 364.013 490.362C331.862 475.779 282.948 475.381 249.82 487.506C226.829 495.922 210.517 510.88 200.329 532.899C194.083 533.467 185.3 533.424 178.816 533.561C179.599 501.651 182.604 466.426 189.934 435.347C193.272 421.19 198.983 408.186 202.456 394.546C197.193 399.234 194.119 403.414 189.966 409.094C197.956 387.343 203.563 380.946 213.386 361.593C206.044 365.346 203.234 367.671 196.923 373.126C202.445 362.912 209.229 353.432 217.115 344.91C221.359 340.255 226.615 335.448 230.295 330.481C221.362 332.385 219.02 333.658 210.705 337.903C233.175 315.028 246.975 316.161 273.902 308.125C269.736 306.747 265.054 305.771 260.756 304.815C267.83 303.818 296.146 302.665 299.166 301.725L299.245 300.92C297.016 299.19 291.205 297.269 288.25 296.144C311.576 295.466 333.93 296.61 357.197 297.671C354.403 295.058 351.328 292.701 348.336 290.308C364.913 292.068 378.917 295.383 395.02 297.687C391.968 293.164 390.167 291.26 386.337 287.549C401.335 290.536 416.834 294.686 431.78 298.295C429.333 293.963 427.424 291.081 424.567 286.984Z" fill="white"/>
<path d="M588.282 484.386C619.05 482.037 659.738 490.025 681.266 513.193C695.79 528.822 702.042 548.86 701.38 569.954C699.507 629.488 660.448 679.275 597.65 677.248C552.498 676.17 518.626 653.374 500.036 612.54C512.846 605.4 509.123 590.203 502.032 579.977C498.91 575.471 495.364 573.879 490.068 573.205C488.286 510.647 531.852 487.674 588.282 484.386Z" fill="white"/>
<path d="M569.583 549.285C596.947 546.376 633.936 551.709 658.759 562.614C663.474 564.684 675.297 569.907 674.948 576.146C674.801 578.792 671.036 580.604 668.617 579.63C659.01 575.534 651.148 571.181 640.977 568.076C645.337 584.921 642.545 597.785 629.16 609.407C625.266 612.07 621.861 613.766 617.287 614.936C608.544 617.134 599.286 615.726 591.589 611.036C573.324 599.947 571.842 577.996 582.631 560.888C575.026 560.692 567.415 560.986 559.847 561.757C553.259 562.382 529.109 568.425 526.428 562.7C528.926 551.715 560 550.013 569.583 549.285Z" fill="#181617"/>
<path d="M613.03 562.301C623.096 563.367 642.745 565.467 627.015 579.807C622.606 582.048 617.794 582.36 613.661 579.293C611.352 577.597 609.846 575.025 609.497 572.184C608.94 567.971 610.526 565.406 613.03 562.301Z" fill="white"/>
<path d="M630.365 497.853C653.81 497.111 673.404 509.016 685.02 529.238C660.221 523.471 640.86 526.228 616.105 528.771C602.071 530.273 588.018 531.657 573.954 532.923C562.687 533.882 505.547 543.728 522.587 518.219C526.831 511.874 547.502 508.602 555.101 507.186C579.972 502.539 605.114 499.422 630.365 497.853Z" fill="#181617"/>
<path d="M294.374 489.892C339.948 487.13 396.122 502.591 400.778 556.662C405.312 609.314 368.357 669.13 312.374 674.482C287.066 678.443 258.103 670.912 238.713 654.061C215.247 633.512 204.923 603.913 203.893 573.604C202.582 535.06 223.168 506.288 260.021 495.314C272.104 491.717 281.848 490.769 294.374 489.892Z" fill="white"/>
<path d="M313.919 548.685C329.058 548.244 360.683 549.523 374.305 558.12C375.758 559.039 376.092 560.943 376.22 562.578C373.558 568.719 359.127 563.888 353.655 562.719C357.106 570.085 359.026 576.906 357.992 585.196C356.804 594.454 352.007 602.874 344.646 608.611C337.542 614.048 328.554 616.405 319.698 615.15C309.083 613.705 302.56 608.482 296.44 600.381C288.982 586.843 288.628 574.714 297.207 561.555C284.846 562.321 272.645 564.751 260.936 568.787C254.398 571.021 241.756 579.563 237.171 578.473C235.287 577.218 235.324 577.377 234.471 575.308C234.592 568.082 242.935 564.819 248.66 562.088C269.484 552.175 291.185 549.566 313.919 548.685Z" fill="#181617"/>
<path d="M328.807 560.827C333.205 560.814 343.728 560.018 345.925 563.833C349.074 569.301 345.644 575.822 341.418 579.165C329.356 584.437 318.391 572.142 328.807 560.827Z" fill="white"/>
<path d="M279.937 497.819C300.095 495.119 344.132 506.231 364.566 511.176C372.393 513.07 385.812 525.943 376.288 532.035C367.842 537.436 340.419 532.833 329.964 531.78C298.263 527.649 257.871 522.003 226.799 525.605C236.871 508.249 261.194 500.146 279.937 497.819Z" fill="#181617"/>
<path d="M860.366 481.215C863.097 481.618 872.104 483.151 870.598 487.881C843.118 574.076 840.16 666.767 840.019 756.598C839.995 770.877 841.33 785.162 841.317 799.441C840.632 801.284 839.456 801.865 837.852 803.066C834.215 803.47 830.069 804.272 829.126 799.343C827.443 790.164 827.13 780.588 826.738 771.269C825.244 735.798 826.481 700.015 828.453 664.599C831.043 618.15 835.66 571.523 845.751 526.06C848.757 512.531 853.38 492.985 860.366 481.215Z" fill="white"/>
<path d="M135.009 475.082C140.569 474.367 152.803 475.073 156.341 479.777C156.59 481.689 156.955 481.785 156.189 483.104C152.494 482.897 148.25 482.289 144.614 482.806C136.545 483.955 129.469 488.812 124.599 495.211C97.8663 530.339 105.625 649.406 111.246 692.193C114.359 715.884 121.729 764.39 133.178 784.572C136.14 789.795 140.058 793.505 144.77 797.124C134.546 797.136 124.911 794.099 120.449 784.211C116.04 774.438 112.398 762.719 109.995 752.23C94.8789 686.15 89.2702 616.243 96.515 548.749C97.0367 543.893 99.4216 521.115 103.13 519.343L105.548 520.935C108.84 519.029 107.821 514.529 109.12 511.279C110.38 508.124 115.245 505.797 114.081 502.288C111.62 500.796 109.861 501.688 107.146 500.993C107.312 486.55 122.222 477.495 135.009 475.082Z" fill="white"/>
<path d="M836.512 479.364C842.77 478.65 847.129 479.043 853.344 479.798C852.211 481.783 851.164 483.99 850.136 486.049C841.41 486.059 833.91 488.211 826.99 493.805C798.163 517.125 788.097 605.509 784.282 641.635C783.737 646.926 783.284 652.314 782.231 657.525C778.618 615.447 787.638 533.342 810.801 496.658C817.041 486.774 825.007 481.622 836.512 479.364Z" fill="white"/>
</g>
<defs>
<clipPath id="clip0_1516_14511">
<rect width="986" height="1058" fill="white"/>
</clipPath>
</defs>
</svg>
