<svg xmlns="http://www.w3.org/2000/svg" width="28" height="28" viewBox="0 0 28 28" fill="none">
  <path d="M 14 0 C 21.719 0 28 6.281 28 14 C 28 21.719 21.719 28 14 28 C 6.281 28 0 21.719 0 14 C 0 6.281 6.281 0 14 0 Z M 14 2.55 C 7.688 2.55 2.55 7.688 2.55 14 C 2.55 20.312 7.688 25.45 14 25.45 C 20.312 25.45 25.45 20.312 25.45 14 C 25.45 7.688 20.312 2.55 14 2.55 Z M 14.003 8 C 16.208 8 18.003 9.757 18 11.918 C 18 13.614 16.89 15.059 15.343 15.603 L 15.343 20 L 12.657 20 L 12.657 15.603 C 11.113 15.062 10 13.617 10 11.918 C 10 9.757 11.798 8 14.003 8 Z M 14.003 10.632 C 13.277 10.632 12.69 11.207 12.689 11.918 C 12.689 12.626 13.28 13.204 14.003 13.204 C 14.726 13.204 15.316 12.629 15.316 11.918 C 15.316 11.21 14.729 10.632 14.003 10.632 Z" fill="currentColor" fill-rule="nonzero"/>
</svg>
