<svg width="125" height="28" viewBox="0 0 125 28" fill="none" xmlns="http://www.w3.org/2000/svg">
<path d="M3.5 26.25H15.6333V10.1649H12.3667V23.1223H6.76667V4.87766H21.2139V26.25H24.5V1.75H3.5V26.25Z" fill="#009CDE"></path>
<path d="M36.1376 12.2826V14.8221H44.3006C44.3006 14.8872 44.2843 14.9523 44.268 15.0174C44.0562 16.3849 43.4534 17.5244 42.4106 18.5012C41.2049 19.6407 39.7548 20.2105 38.1417 20.2105C36.3983 20.2105 34.9645 19.6081 33.7425 18.3872C32.5205 17.1663 31.9176 15.7174 31.9176 13.9919C31.9176 12.2663 32.5205 10.8174 33.7425 9.59651C34.9645 8.37558 36.4146 7.77325 38.1417 7.77325C39.7711 7.77325 41.2701 8.42442 42.7202 9.77558L43.1927 10.1988L44.9035 8.32674L44.4473 7.90349C42.6061 6.14535 40.4717 5.25 38.1417 5.25C35.7466 5.25 33.661 6.11279 31.9339 7.82209C30.2557 9.49883 29.3921 11.5663 29.3758 13.9756C29.3432 16.2384 30.2883 18.4849 31.9665 20.1616C33.6121 21.8058 35.828 22.75 38.0439 22.75C38.0765 22.75 38.1254 22.75 38.158 22.75C40.5694 22.7337 42.6387 21.8709 44.3169 20.1942C46.0115 18.4849 46.875 16.4012 46.875 13.9919V13.9756V13.7639C46.8587 13.0639 46.7284 12.3802 46.7121 12.2826H36.1376Z" fill="#003865"></path>
<path d="M63.6156 7.95484C61.9755 6.16248 59.8762 5.25 57.3996 5.25C54.9722 5.25 52.9221 6.11359 51.1836 7.87337C49.4943 9.55168 48.625 11.5885 48.625 14C48.625 16.4604 49.4943 18.4972 51.1836 20.1755C52.8729 21.8864 54.9722 22.75 57.3996 22.75C59.745 22.75 61.9591 21.7235 64.1077 19.6867L62.3855 17.8943C60.7454 19.4423 59.0889 20.2244 57.3996 20.2244C55.7923 20.2244 54.431 19.6867 53.2829 18.6764C52.0856 17.6173 51.3968 16.3464 51.2328 14.831H66.125C66.125 12.0447 65.3049 9.79609 63.6156 7.95484ZM51.3968 12.2891C52.1348 9.58427 54.5294 7.7919 57.3996 7.7919C60.2698 7.7919 62.6644 9.58427 63.4024 12.2891H51.3968Z" fill="#003865"></path>
<path d="M76.6496 5.25C74.2222 5.25 72.1721 6.11359 70.4336 7.87337C68.7443 9.55168 67.875 11.5885 67.875 14V22.75H70.4336V14C70.4336 12.3217 71.0076 10.8552 72.2049 9.63315C73.435 8.41108 74.9275 7.7919 76.6496 7.7919C78.3389 7.7919 79.815 8.41108 81.0123 9.63315C82.2424 10.8552 82.8656 12.338 82.8656 14V22.75H85.375V14C85.375 11.5885 84.5057 9.58427 82.8164 7.87337C81.0943 6.11359 79.077 5.25 76.6496 5.25Z" fill="#003865"></path>
<path d="M102.116 7.95484C100.476 6.16248 98.3762 5.25 95.8996 5.25C93.4722 5.25 91.4221 6.11359 89.6836 7.87337C87.9943 9.55168 87.125 11.5885 87.125 14C87.125 16.4604 87.9943 18.4972 89.6836 20.1755C91.3729 21.8864 93.4722 22.75 95.8996 22.75C98.245 22.75 100.459 21.7235 102.608 19.6867L100.886 17.8943C99.2454 19.4423 97.5889 20.2244 95.8996 20.2244C94.2923 20.2244 92.931 19.6867 91.7829 18.6764C90.5856 17.6173 89.8968 16.3464 89.7328 14.831H104.625C104.625 12.0447 103.805 9.79609 102.116 7.95484ZM89.8968 12.2891C90.6348 9.58427 93.0294 7.7919 95.8996 7.7919C98.7698 7.7919 101.164 9.58427 101.902 12.2891H89.8968Z" fill="#003865"></path>
<path d="M121.316 7.87337C119.594 6.11359 117.577 5.25 115.15 5.25C112.722 5.25 110.672 6.11359 108.934 7.87337C107.244 9.55168 106.375 11.5885 106.375 14C106.375 16.4604 107.244 18.4972 108.934 20.1755C110.623 21.8864 112.722 22.75 115.15 22.75C117.577 22.75 119.627 21.8864 121.366 20.1755V22.75H123.875V14C123.875 11.5885 123.006 9.58427 121.316 7.87337ZM119.512 18.4157C118.315 19.6378 116.839 20.2081 115.15 20.2081C113.427 20.2081 111.935 19.6378 110.705 18.4157C109.508 17.1937 108.934 15.7109 108.934 14C108.934 12.3217 109.508 10.8552 110.705 9.63315C111.935 8.41108 113.427 7.7919 115.15 7.7919C116.839 7.7919 118.315 8.41108 119.512 9.63315C120.742 10.8552 121.366 12.338 121.366 14C121.366 15.7272 120.742 17.1448 119.512 18.4157Z" fill="#003865"></path>
</svg>